  0
SECTION
  2
HEADER
  9
$ACADVER
  1
AC1009
  9
$INSUNITS
  70
4
  9
$EXTMIN
  10
-39.4523
  20
-6.61511
  9
$EXTMAX
  10
74.7254
  20
4.32273
  0
ENDSEC
  0
SECTION
  2
TABLES
  0
TABLE
  2
LTYPE
  70
1
  0
LTYPE
  2
CONTINUOUS
  70
64
  3
Solid line
  72
65
  73
0
  40
0
  0
ENDTAB
  0
TABLE
  2
LAYER
  70
1
  0
LAYER
  2
NA
  70
0
  62
1
  6
CONTINUOUS
  0
ENDTAB
  0
ENDSEC
  0
SECTION
  2
BLOCKS
  0
ENDSEC
  0
SECTION
  2
ENTITIES
  0
POLYLINE
  8
NA
  70
1
  66
1
  0
VERTEX
  8
NA
  10
-9.09433
  20
-1.64832
  0
VERTEX
  8
NA
  10
1.9095
  20
-1.64832
  0
VERTEX
  8
NA
  10
1.9095
  20
-0.644052
  0
VERTEX
  8
NA
  10
-9.09433
  20
-0.644052
  0
SEQEND
  0
POLYLINE
  8
NA
  70
1
  66
1
  0
VERTEX
  8
NA
  10
1.9095
  20
-6.61511
  0
VERTEX
  8
NA
  10
12.1156
  20
-6.61511
  0
VERTEX
  8
NA
  10
12.1156
  20
4.32273
  0
VERTEX
  8
NA
  10
1.9095
  20
4.32273
  0
SEQEND
  0
POLYLINE
  8
NA
  70
1
  66
1
  0
VERTEX
  8
NA
  10
12.1156
  20
-1.58631
  0
VERTEX
  8
NA
  10
23.1576
  20
-1.58631
  0
VERTEX
  8
NA
  10
23.1576
  20
-0.706067
  0
VERTEX
  8
NA
  10
12.1156
  20
-0.706067
  0
SEQEND
  0
POLYLINE
  8
NA
  70
1
  66
1
  0
VERTEX
  8
NA
  10
23.1576
  20
-6.61511
  0
VERTEX
  8
NA
  10
33.3636
  20
-6.61511
  0
VERTEX
  8
NA
  10
33.3636
  20
4.32273
  0
VERTEX
  8
NA
  10
23.1576
  20
4.32273
  0
SEQEND
  0
POLYLINE
  8
NA
  70
1
  66
1
  0
VERTEX
  8
NA
  10
33.3636
  20
-1.64832
  0
VERTEX
  8
NA
  10
44.3674
  20
-1.64832
  0
VERTEX
  8
NA
  10
44.3674
  20
-0.644052
  0
VERTEX
  8
NA
  10
33.3636
  20
-0.644052
  0
SEQEND
  0
POLYLINE
  8
NA
  70
1
  66
1
  0
VERTEX
  8
NA
  10
-19.4523
  20
-4.50888
  0
VERTEX
  8
NA
  10
-9.09433
  20
-4.50888
  0
VERTEX
  8
NA
  10
-9.09433
  20
2.2165
  0
VERTEX
  8
NA
  10
-19.4523
  20
2.2165
  0
SEQEND
  0
POLYLINE
  8
NA
  70
1
  66
1
  0
VERTEX
  8
NA
  10
44.3674
  20
-4.50888
  0
VERTEX
  8
NA
  10
54.7254
  20
-4.50888
  0
VERTEX
  8
NA
  10
54.7254
  20
2.2165
  0
VERTEX
  8
NA
  10
44.3674
  20
2.2165
  0
SEQEND
  0
POLYLINE
  8
NA
  70
1
  66
1
  0
VERTEX
  8
NA
  10
-39.4523
  20
-2.33469
  0
VERTEX
  8
NA
  10
-19.4523
  20
-2.33469
  0
VERTEX
  8
NA
  10
-19.4523
  20
0.042312
  0
VERTEX
  8
NA
  10
-39.4523
  20
0.042312
  0
SEQEND
  0
POLYLINE
  8
NA
  70
1
  66
1
  0
VERTEX
  8
NA
  10
54.7254
  20
-2.33469
  0
VERTEX
  8
NA
  10
74.7254
  20
-2.33469
  0
VERTEX
  8
NA
  10
74.7254
  20
0.042312
  0
VERTEX
  8
NA
  10
54.7254
  20
0.042312
  0
SEQEND
  0
ENDSEC
  0
EOF
